<svg version="1.0" xmlns="http://www.w3.org/2000/svg" width="929.333" height="372" viewBox="0 0 697 279"><path d="M100.5 24.7c-8.7 2.7-16.7 9.7-20 17.6-.9 2.3-2.1 5-2.6 5.9-.5 1-.9 2.5-.9 3.3s-.4 2.3-.9 3.3C74.8 57.3 73 65.6 72.2 73l-.7 6.5-24.2.5c-23.6.5-24.3.6-26.5 2.8-2 1.9-2.3 3.2-2.1 9 .2 10.8 2.3 43.8 3.4 54.7.5 5.5 1.4 17.2 1.9 26 2.4 42.2 2.5 42.6 5.8 49.6 2.3 4.8 4.1 7.1 7.3 9.1l4.3 2.8H113c68.6 0 71.6-.1 74.6-1.9 3.6-2.2 8.4-8.1 8.4-10.2 0-.8.4-1.9.8-2.5 2.3-2.5 3.5-14 6.4-59.9.5-9.4 1.4-23.3 1.9-31s1.2-20.8 1.5-29.2c.6-13.8.4-15.4-1.2-17s-4.5-1.9-26.3-2.3l-24.6-.5-.2-3.5c-1.1-14.7-9.4-35.6-17.9-44.4-6.3-6.6-11.5-8.6-22.2-8.5-4.8.1-10.9.8-13.7 1.6m22.5 9.5c10.6 5.7 19.2 23.1 20.2 40.8l.3 4.5-30.2.3c-23.9.2-30.3 0-30.4-1-.4-3.4.3-12.6 1.1-15.3.5-1.7 1.6-5.5 2.6-8.5 1.6-5.5 7.2-14.4 10.5-16.8 1-.7 2.4-1.8 3.1-2.5 4.5-4.3 16.1-5 22.8-1.5m1 72.6c7.1 2 14.8 5.9 16.3 8.3.6.9.7 2.8.3 4.2-.8 3.4-3.5 3.5-9.5.6-5.7-2.7-12.9-4.9-16.4-4.9-8.7 0-19 6.8-20.3 13.4-1.5 8.1 4.1 14.7 16.4 19.2 8.7 3.2 9.3 3.4 16 6.5 12.3 5.7 21.2 17 21.2 27 0 2.6-.4 5.1-1 5.4-.5.3-1 1.4-1 2.5 0 1-2 4-4.4 6.6-4.3 4.8-9.4 7.9-16.7 10.2-4.6 1.5-15.2 1.5-19.8 0-9.6-3-12.8-4.5-18.2-8-4.9-3.1-5.9-4.2-5.9-6.6 0-2 .7-3.3 2.4-4.1 2.1-1.2 2.9-1 6.9 1.7 4.2 2.9 7.5 4.4 15.8 7.1 4.2 1.3 17.5 1.5 18.3.2.3-.4 1.8-1.1 3.3-1.4 5.6-1.2 10.3-7.4 10.3-13.5 0-7.4-5.6-14.2-14.8-18.3-2.6-1.1-5.5-2.5-6.4-3-1-.5-2.3-.9-2.9-.9-1.3 0-15.5-6.7-17.3-8.1-10.3-8-11.6-10.3-11.6-20.2 0-6.6.3-7.8 2.9-11.4 4.7-6.4 10.8-10.5 19-12.8 6.5-1.8 9.7-1.7 17.1.3m127.5.4c-14.8 2.7-22.5 11.2-22.5 24.6 0 11.7 6.6 18.7 24 25.5 1.4.5 3.3 1.3 4.2 1.8 1 .5 2.2.9 2.7.9 2.5 0 14.1 6.3 17.3 9.4 8.8 8.6 6.5 23.6-4.6 29.1-3.6 1.8-22.1 2.1-26.3.4-7.7-3.2-10.1-4.4-13.3-7.1-3.7-3-5.9-3.5-7.8-1.6-4.3 4.3 1.4 9 20.2 16.7 1.6.7 6.7 1.5 11.3 1.8 14.7 1 24.8-3.2 31-13.1 2.3-3.5 2.7-5.3 2.7-12.2.1-6.7-.3-8.8-2.4-12.8-4.1-8.1-12.2-13.7-27-18.7-17.3-5.8-24-11.6-24-20.6.1-9.5 8.7-16.6 20.3-16.7 7.1-.1 15 1.9 18.9 4.6 3.8 2.6 8.2 2.1 8.6-1 .5-3-1.4-5.1-6.5-7.4-3.6-1.6-19.7-5.1-21.3-4.7-.3.1-2.7.6-5.5 1.1m53.6.2c-.8.9-1 15.2-.9 51.2l.3 49.9 2.4.3c1.3.2 2.8-.1 3.4-.7s1-6.9.9-16.8c-.1-10.5.2-17 1.1-19.3 2.2-6.3 5.8-11 10.5-13.8 6.4-3.7 15.9-3.8 21.2-.3 7.3 4.9 7.5 5.4 7.8 27.1.3 23 .4 24 3.6 24 4 0 4.6-2.1 5.3-16.4 1.2-27.4-3.7-39.4-18-44.2-8.3-2.7-17.3-1.2-26.3 4.6-1.2.7-2.9 1-3.8.7-1.4-.6-1.6-3.2-1.6-22.6 0-12.1-.3-22.6-.6-23.5-.8-2-3.8-2.1-5.3-.2m93.9 41c-8.9 2.5-15 6.8-20.3 14.5-3.1 4.4-3.2 5-3.2 14.7 0 8.6.3 10.7 2.4 14.7 2.9 5.7 7.1 10 13 13.5 4.2 2.5 5.5 2.7 14.6 2.7 8.2-.1 10.8-.5 14.5-2.3 7-3.4 11.5-7.6 14.6-13.7 2.4-4.9 2.8-6.7 2.7-13.8-.1-6.8-.5-9-2.7-13.2-4.7-8.8-11.3-14.1-20.8-16.9-6.5-1.9-8.6-1.9-14.8-.2m16.2 8.9c3.9 2 8.5 6.2 11.3 10.2 1.9 3 2.5 5 2.5 9.5 0 8.5-.9 11.5-4.6 15.9-6 6.9-16.2 10.4-23.6 8.1-8.6-2.8-16.8-10.1-16.8-15.2 0-.9-.4-2-1-2.3-1.2-.8-1.3-9.2-.1-9.9.4-.3 1.1-1.8 1.4-3.4.7-3.6 6.4-9.3 11.8-12 5.1-2.4 15.3-2.9 19.1-.9m62.4-8.6c-3.5.8-8.1 2.9-10.9 4.9-2.7 1.9-5.3 3.4-5.9 3.2s-1.2-1.9-1.3-3.7c-.4-4.2-1.6-5.4-4.9-4.5l-2.6.6V234h8.1l-.2-16.1c0-8.9.3-16.5.8-17s2.3.4 4.1 1.9c8.9 7.6 28.8 8.3 37.4 1.4 8.7-7.1 10.9-10.3 13.8-19.8 1.5-5 .2-12.1-3.7-19.9-3.1-6.1-4.6-7.9-9.9-11.6-3.4-2.3-15.6-6.2-18.2-5.8-.4.1-3.4.8-6.6 1.6m16 8.9c10.4 4.6 16.3 16.6 13.4 27.4-1.5 5.5-10 14.4-14.8 15.4-1.8.3-4.6.9-6.2 1.2-2.9.6-5.9-.2-12.5-3.2-8.9-4.1-13.3-12.6-12-23.5.6-4.8 1.4-6.6 4.5-10.2 7.7-8.7 18.1-11.4 27.6-7.1m58.1-9.1c-10.1 2.8-16.6 9.9-20.6 22.4-2.9 9.1.5 22.3 7.7 30.3 4.5 5 7.4 6.4 16.2 8.3 6.2 1.3 7.8 1.3 14.1 0 9.8-2.1 14.9-5 14.9-8.5 0-4.3-4.7-4.3-15.8.1-4.2 1.6-13 1-17.7-1.2-5.1-2.4-10-7.8-10.8-11.8-1.5-7.3-3.8-6.6 21.2-6.9 27-.3 26.7-.2 25.8-10-1.1-11-9-19.8-20.5-22.6-7.7-1.9-8.1-1.9-14.5-.1m16.5 8.7c1.2.7 3.2 2.2 4.5 3.3 4.3 3.6 7 11.5 3.9 11.5-.8 0-8.8.2-17.8.4-9 .3-17 .1-17.7-.3-3.2-2 3.1-11.8 9.3-14.6 4-1.7 15-1.9 17.8-.3m54.5-8.5c-9.8 2.6-17.4 11-20.6 22.9-3.6 13.4 3.7 30.1 15.5 35.4 8.5 3.9 24.1 3.6 33-.7 4.4-2.1 6-5.5 3.8-7.8-1.6-1.5-3.3-1.4-7.9.4-1.1.5-3.3 1.4-4.8 2s-5.3 1.1-8.4 1.1c-13 0-21.2-6.2-23-17.6l-.6-3.4h23c26.7 0 25.9.3 25.1-8.8-1.2-12.2-8-20.2-20-23.6-6.8-1.9-7.5-1.9-15.1.1m17.1 8.9c4.8 2.3 9.3 8.3 9 11.7l-.3 2.9-17.6.3c-9.8.1-18.2-.1-18.9-.5-.9-.5-.6-2 1-5.4 3.1-6.8 9.3-10.6 17.5-10.6 3.6 0 7.5.7 9.3 1.6" fill="#ee4c2b"/></svg>