<?xml version="1.0" standalone="no"?>
<!DOCTYPE svg PUBLIC "-//W3C//DTD SVG 20010904//EN"
 "http://www.w3.org/TR/2001/REC-SVG-20010904/DTD/svg10.dtd">
<svg version="1.0" xmlns="http://www.w3.org/2000/svg"
 width="697.000000pt" height="279.000000pt" viewBox="0 0 697.000000 279.000000"
 preserveAspectRatio="xMidYMid meet">

<g transform="translate(0.000000,279.000000) scale(0.100000,-0.100000)"
fill="#000000" stroke="none">
<path d="M1005 2543 c-87 -27 -167 -97 -200 -176 -9 -23 -21 -50 -26 -59 -5
-10 -9 -25 -9 -33 0 -8 -4 -23 -9 -33 -13 -25 -31 -108 -39 -182 l-7 -65 -242
-5 c-236 -5 -243 -6 -265 -28 -20 -19 -23 -32 -21 -90 2 -108 23 -438 34 -547
5 -55 14 -172 19 -260 24 -422 25 -426 58 -496 23 -48 41 -71 73 -91 l43 -28
716 0 c686 0 716 1 746 19 36 22 84 81 84 102 0 8 4 19 8 25 23 25 35 140 64
599 5 94 14 233 19 310 5 77 12 208 15 292 6 138 4 154 -12 170 -16 16 -45 19
-263 23 l-246 5 -2 35 c-11 147 -94 356 -179 444 -63 66 -115 86 -222 85 -48
-1 -109 -8 -137 -16z m225 -95 c106 -57 192 -231 202 -408 l3 -45 -302 -3
c-239 -2 -303 0 -304 10 -4 34 3 126 11 153 5 17 16 55 26 85 16 55 72 144
105 168 10 7 24 18 31 25 45 43 161 50 228 15z m10 -726 c71 -20 148 -59 163
-83 6 -9 7 -28 3 -42 -8 -34 -35 -35 -95 -6 -57 27 -129 49 -164 49 -87 0
-190 -68 -203 -134 -15 -81 41 -147 164 -192 87 -32 93 -34 160 -65 123 -57
212 -170 212 -270 0 -26 -4 -51 -10 -54 -5 -3 -10 -14 -10 -25 0 -10 -20 -40
-44 -66 -43 -48 -94 -79 -167 -102 -46 -15 -152 -15 -198 0 -96 30 -128 45
-182 80 -49 31 -59 42 -59 66 0 20 7 33 24 41 21 12 29 10 69 -17 42 -29 75
-44 158 -71 42 -13 175 -15 183 -2 3 4 18 11 33 14 56 12 103 74 103 135 0 74
-56 142 -148 183 -26 11 -55 25 -64 30 -10 5 -23 9 -29 9 -13 0 -155 67 -173
81 -103 80 -116 103 -116 202 0 66 3 78 29 114 47 64 108 105 190 128 65 18
97 17 171 -3z"/>
<path d="M2515 1718 c-148 -27 -225 -112 -225 -246 0 -117 66 -187 240 -255
14 -5 33 -13 42 -18 10 -5 22 -9 27 -9 25 0 141 -63 173 -94 88 -86 65 -236
-46 -291 -36 -18 -221 -21 -263 -4 -77 32 -101 44 -133 71 -37 30 -59 35 -78
16 -43 -43 14 -90 202 -167 16 -7 67 -15 113 -18 147 -10 248 32 310 131 23
35 27 53 27 122 1 67 -3 88 -24 128 -41 81 -122 137 -270 187 -173 58 -240
116 -240 206 1 95 87 166 203 167 71 1 150 -19 189 -46 38 -26 82 -21 86 10 5
30 -14 51 -65 74 -36 16 -197 51 -213 47 -3 -1 -27 -6 -55 -11z"/>
<path d="M3051 1716 c-8 -9 -10 -152 -9 -512 l3 -499 24 -3 c13 -2 28 1 34 7
6 6 10 69 9 168 -1 105 2 170 11 193 22 63 58 110 105 138 64 37 159 38 212 3
73 -49 75 -54 78 -271 3 -230 4 -240 36 -240 40 0 46 21 53 164 12 274 -37
394 -180 442 -83 27 -173 12 -263 -46 -12 -7 -29 -10 -38 -7 -14 6 -16 32 -16
226 0 121 -3 226 -6 235 -8 20 -38 21 -53 2z"/>
<path d="M3990 1306 c-89 -25 -150 -68 -203 -145 -31 -44 -32 -50 -32 -147 0
-86 3 -107 24 -147 29 -57 71 -100 130 -135 42 -25 55 -27 146 -27 82 1 108 5
145 23 70 34 115 76 146 137 24 49 28 67 27 138 -1 68 -5 90 -27 132 -47 88
-113 141 -208 169 -65 19 -86 19 -148 2z m162 -89 c39 -20 85 -62 113 -102 19
-30 25 -50 25 -95 0 -85 -9 -115 -46 -159 -60 -69 -162 -104 -236 -81 -86 28
-168 101 -168 152 0 9 -4 20 -10 23 -12 8 -13 92 -1 99 4 3 11 18 14 34 7 36
64 93 118 120 51 24 153 29 191 9z"/>
<path d="M4776 1303 c-35 -8 -81 -29 -109 -49 -27 -19 -53 -34 -59 -32 -6 2
-12 19 -13 37 -4 42 -16 54 -49 45 l-26 -6 0 -424 0 -424 40 0 41 0 -2 161 c0
89 3 165 8 170 5 5 23 -4 41 -19 89 -76 288 -83 374 -14 87 71 109 103 138
198 15 50 2 121 -37 199 -31 61 -46 79 -99 116 -34 23 -156 62 -182 58 -4 -1
-34 -8 -66 -16z m160 -89 c104 -46 163 -166 134 -274 -15 -55 -100 -144 -148
-154 -18 -3 -46 -9 -62 -12 -29 -6 -59 2 -125 32 -89 41 -133 126 -120 235 6
48 14 66 45 102 77 87 181 114 276 71z"/>
<path d="M5517 1305 c-101 -28 -166 -99 -206 -224 -29 -91 5 -223 77 -303 45
-50 74 -64 162 -83 62 -13 78 -13 141 0 98 21 149 50 149 85 0 43 -47 43 -158
-1 -42 -16 -130 -10 -177 12 -51 24 -100 78 -108 118 -15 73 -38 66 212 69
270 3 267 2 258 100 -11 110 -90 198 -205 226 -77 19 -81 19 -145 1z m165 -87
c12 -7 32 -22 45 -33 43 -36 70 -115 39 -115 -8 0 -88 -2 -178 -4 -90 -3 -170
-1 -177 3 -32 20 31 118 93 146 40 17 150 19 178 3z"/>
<path d="M6227 1303 c-98 -26 -174 -110 -206 -229 -36 -134 37 -301 155 -354
85 -39 241 -36 330 7 44 21 60 55 38 78 -16 15 -33 14 -79 -4 -11 -5 -33 -14
-48 -20 -15 -6 -53 -11 -84 -11 -130 0 -212 62 -230 176 l-6 34 230 0 c267 0
259 -3 251 88 -12 122 -80 202 -200 236 -68 19 -75 19 -151 -1z m171 -89 c48
-23 93 -83 90 -117 l-3 -29 -176 -3 c-98 -1 -182 1 -189 5 -9 5 -6 20 10 54
31 68 93 106 175 106 36 0 75 -7 93 -16z"/>
</g>
</svg>
